<svg xmlns="http://www.w3.org/2000/svg" fill="white" viewBox="0 0 512.001 512.001">
    <path d="M 373.4 1 H 138.6 C 62.2 1 0 63.2 0 139.6 v 234.8 C 0 450.8 62.2 513 138.6 513 h 234.8 c 76.4 0 138.6 -62.2 138.6 -138.6 V 139.6 C 512 63.2 449.8 1 373.4 1 z M 256 397 c -77.2 0 -140 -62.8 -140 -140 s 62.8 -140 140 -140 s 140 62.8 140 140 s -62.8 140 -140 140 z m 143.3 -247 c -22.8 0 -41.4 -18.6 -41.4 -41.4 s 18.6 -41.4 41.4 -41.4 s 41.4 18.6 41.4 41.4 s -18.6 41.4 -41.4 41.4 z m 0 0"/>
    <path d="M 256 146 c -60.6 0 -110 49.3 -110 110 c 0 60.6 49.3 110 110 110 c 60.6 0 110 -49.3 110 -110 c 0 -60.6 -49.3 -110 -110 -110 z m 143.3 -49.7 c -6.3 0 -11.4 5.1 -11.4 11.4 c 0 6.3 5.1 11.4 11.4 11.4 c 6.3 0 11.4 -5.1 11.4 -11.4 c 0 -6.3 -5.1 -11.4 -11.4 -11.4 z m 0 0"/>
</svg>
