<svg width="16" height="17" xmlns="http://www.w3.org/2000/svg"><path d="M14.678.816H1.34c-.324 0-.6.111-.828.333a1.078 1.078 0 0 0-.342.801v13.5c0 .312.114.576.342.792.228.216.498.324.81.324h13.356c.312 0 .582-.108.81-.324a1.05 1.05 0 0 0 .342-.792V1.95c0-.312-.114-.579-.342-.801a1.143 1.143 0 0 0-.828-.333h.018zM4.922 14.01H2.564V6.9h2.358v7.11zM3.734 5.928h-.018c-.384 0-.696-.117-.936-.351a1.18 1.18 0 0 1-.36-.882c0-.354.123-.648.369-.882.246-.234.567-.351.963-.351s.714.117.954.351c.24.234.36.528.36.882s-.12.648-.36.882c-.24.234-.564.351-.972.351zm9.702 8.082h-2.358v-3.816c0-.492-.09-.876-.27-1.152-.204-.3-.51-.45-.918-.45-.312 0-.576.09-.792.27a1.439 1.439 0 0 0-.432.594c-.048.132-.072.324-.072.576v3.978H6.236v-3.312c.012-2.256.012-3.522 0-3.798h2.358v1.008c.216-.336.45-.594.702-.774.396-.264.87-.396 1.422-.396.816 0 1.464.258 1.944.774.516.564.774 1.368.774 2.412v4.086z" fill="#FFF" fill-rule="evenodd"/></svg>