<svg width="17" height="14" xmlns="http://www.w3.org/2000/svg"><path d="M14.358 2.326c.336-.204.627-.459.873-.765s.43-.651.55-1.035a6.288 6.288 0 0 1-2.053.792 3.182 3.182 0 0 0-1.062-.756c-.408-.18-.84-.27-1.296-.27-.576 0-1.113.147-1.61.441a3.266 3.266 0 0 0-1.18 1.179 3.149 3.149 0 0 0-.432 1.62c0 .252.024.498.072.738a9.126 9.126 0 0 1-3.726-1.008A9.218 9.218 0 0 1 1.56.886a3.212 3.212 0 0 0-.432 1.62c0 .552.13 1.065.387 1.539.258.474.61.861 1.053 1.161a3.038 3.038 0 0 1-1.476-.414v.054c.012.504.13.981.351 1.431.222.45.531.828.927 1.134.396.306.834.507 1.314.603a3.338 3.338 0 0 1-1.44.054 3.119 3.119 0 0 0 1.134 1.593 3.234 3.234 0 0 0 1.872.657 6.711 6.711 0 0 1-1.872 1.008c-.684.24-1.398.36-2.142.36-.264 0-.522-.012-.774-.036a8.947 8.947 0 0 0 2.34 1.062 9.217 9.217 0 0 0 2.628.378c1.416 0 2.73-.276 3.942-.828a8.747 8.747 0 0 0 2.88-2.16 9.655 9.655 0 0 0 1.764-2.952c.396-1.08.594-2.16.594-3.24v-.414a6.789 6.789 0 0 0 1.62-1.692 6.568 6.568 0 0 1-1.872.522z" fill="#FFF" fill-rule="evenodd"/></svg>