<svg version="1" xmlns="http://www.w3.org/2000/svg" width="752" height="752" viewBox="0 0 564.000000 564.000000"><path d="M271 35.7c-1.4.2-3.2.6-4 .9-.8.3-1.6.5-1.8.4-.1 0-.9.5-1.8 1.2-10.2 8.4-12.7 19.2-6.7 29.8 4.5 8.1 15 12.3 24.1 9.8 9.5-2.6 16-11.1 16-20.8-.1-13.8-11.8-23.5-25.8-21.3zM203.5 44.9c-8.2 3.8-13 11.2-12.9 20.1.2 12.7 10.2 22.4 22.7 22.1 9.6-.2 17.6-6.1 20.7-15.1 2.9-8.6.8-17-5.7-23.2-6.1-5.8-16.9-7.5-24.8-3.9zM333 44.7c-7.5 2.5-13.5 7.6-14.7 12.3-.3 1.4-.8 2.9-1.1 3.5-1 1.7-.4 9.2 1.1 12.7 3.2 7.6 10.4 12.1 19.2 12.1 6.8 0 10.6-1.6 15.1-6.5 11.9-12.8 4-32.7-13.7-34.2-2.4-.2-5.1-.2-5.9.1zM150 68c-10.3 2.8-17 11.6-16.4 21.7.6 10.9 8.2 18.9 19 20 7.1.8 13.1-1.6 17.9-6.8 5.5-6.1 6.8-11.2 5-19.4-2.2-10.4-15.1-18.3-25.5-15.5zM388.4 72.8c-9.1 4.6-12.7 13.7-9 22.7 4.2 9.8 15.6 13.6 24.8 8.2 12-7 11.7-24-.7-30.4-3.9-2.1-11.5-2.4-15.1-.5zM240.1 99.2c-19.3 3.4-22.9 29.4-5.4 37.9 13.3 6.4 28.4-2.1 29.6-16.6 1.1-13.1-11-23.7-24.2-21.3zM300.9 101.6c-9.2 2.8-14.7 12.3-12.5 21.9.2 1.1.5 2.3.5 2.7.2 1.5 6.5 7.9 9 9.2 6.9 3.6 15.1 2.4 21.1-3 14.5-13.1.8-36.3-18.1-30.8zM98 105.6c-5.5 1.7-10.1 5.7-12.9 11-7.2 14 2.2 30.7 18 31.9 17 1.2 29.3-15.9 22.3-31.2-1.6-3.6-6.7-8.7-10.8-10.8-3.9-2.1-11.5-2.5-16.6-.9zM438.2 111.7c-5.4 2.8-8.7 7.2-9.3 12.3-1.3 11.6 8.1 20.6 19.7 18.7 4.3-.7 9.9-4.8 11.8-8.5 2.2-4.3 1.6-13.1-1.2-17-4.6-6.4-14.3-8.9-21-5.5zM177.8 120.2c-3.9 1-11.8 8-11.8 10.4 0 .8-.4 1.4-.8 1.4-.5 0-.9.6-1 1.2-.1.7-.3 3.1-.5 5.2-1.7 16.8 17.1 28.8 31.7 20.2 16.3-9.6 13.5-33.5-4.5-38.6-4.1-1.2-8.1-1.1-13.1.2zM359.5 122.7c-5.8 1.6-12.1 9.3-12.6 15.4-.9 13.8 10.6 23.4 23.8 19.8 14.4-3.9 17.8-23.3 5.7-32.5-2.8-2.2-4.9-2.8-9.2-3-3.2-.2-6.6 0-7.7.3zM57.6 158.1c-6.9 3.3-10.8 9.7-10.8 17.8-.2 15.7 17.2 24.9 30.7 16.4 13.1-8.1 12-27.5-1.9-34.3-5.2-2.5-12.8-2.5-18 .1zM271 159.3c-15.2 3.9-17.7 24.8-3.7 31.6 16.5 8 32.5-10.8 21.7-25.5-3.7-5-11.7-7.8-18-6.1zM130.3 162.1c-6.9 2-13.8 12.3-12.7 18.7.3 1.5.6 3.5.7 4.4.4 5.5 10.5 13.8 17 14 18.1.5 27.6-20.1 15.1-32.5-5.2-5.2-12.3-6.8-20.1-4.6zM481.5 161.7c-4.7.9-7.3 2.6-9.8 6.5-3.1 4.9-3.4 8.9-.9 13.8 8.3 16.6 33.6 4.2 25.6-12.6-2.5-5.2-9.4-8.7-14.9-7.7zM408.8 165.7c-6.8 1.9-10.2 6.7-10.3 14.2 0 6.7 2.5 10.9 8.2 13.7 6 2.8 12.4 1.8 17.4-2.7 5.1-4.8 6.2-11.4 3-17.8-3.6-6.9-10.5-9.7-18.3-7.4zM211.3 174.1c-8.5 1.7-14.3 8.8-14.3 17.3 0 11.1 8.9 19.1 20.1 18.1 9.4-.8 15.9-8.3 15.9-18.2 0-11-10.7-19.5-21.7-17.2zM329.5 176.8c-4.6 1.8-5.6 2.7-8.4 7.3-7.3 11.9 4.8 26.7 18.7 22.9 6.6-1.8 11-6.9 11.7-13.7 1.1-12.1-10.7-21-22-16.5zM34.4 216.5c-11.2 5.6-13.9 18.1-6.3 28.4 8.2 11.2 27.8 7.8 32.4-5.6 5.5-16-10.9-30.4-26.1-22.8zM97.2 218.1c-6.3 3.1-10.1 9.8-9.7 16.9.3 4 3.5 9.9 6.9 12.4 7.4 5.5 14.9 5.5 22.4-.1 4.5-3.3 6.4-7.6 6.3-13.9-.1-13.2-13.8-21.3-25.9-15.3zM164.9 219.7c-12 5-14.6 18.5-5.3 27.9 4.5 4.6 14 5.5 20 2 7.8-4.6 10.5-15.8 5.5-23.1-4.7-7-13.1-9.8-20.2-6.8zM439.8 222.7c-2.6 1-4.3 2.7-5.6 5.4-4.5 9.1 1.6 18.1 11.8 17.4 3.6-.3 5.1-1 7.7-3.9 8.8-9.6-1.6-23.9-13.9-18.9zM373.5 223.6c-4.6 2.3-6.9 6.1-6.9 11.3 0 5.6 2.4 9.6 7.3 12 4.4 2.1 8.1 1.9 12.5-.8 8-5 8.1-16.4.1-21.7-3.4-2.2-9.4-2.6-13-.8zM501.9 223.5c-5.6 3-7.1 12.2-2.8 16.9 6.6 7.1 18.4 3.4 19.5-6.1 1.1-9-8.5-15.3-16.7-10.8zM27.4 279.9C11.5 287.1 17 311 34.5 311c5.3 0 9.9-2.3 13.1-6.6 2.5-3.2 2.9-4.7 2.9-9.8 0-4.9-.5-6.7-2.5-9.4-4.7-6.4-13.4-8.6-20.6-5.3zM87.6 281.3c-5.1 2.9-7.6 6.4-8.3 11.6-.7 5.2 1.6 10.6 6 14.1s13.7 3.6 18.5.1c3.7-2.6 7-9.1 6.7-13.1-.5-6.5-5.2-12.3-11.2-13.9-5.4-1.5-7.3-1.3-11.7 1.2zM148.1 281.7c-4.5 2.2-7.4 6.8-7.7 12.1-.6 10.9 9.8 18.3 20.1 14.2 5.8-2.2 9.8-9.1 8.9-15.1-.7-4.3-4.1-9.4-7.4-11-3.8-1.8-10.3-1.9-13.9-.2zM390.1 285.3c-6 3-7.2 11.9-2.3 16.9 8.3 8.3 22.3-.9 17.7-11.7-2.3-5.6-9.8-8.1-15.4-5.2zM448.9 287.9c-5.2 5.3-3.5 13.5 3.3 16 8.3 3 16-5.4 12.3-13.2-3-6.3-10.7-7.7-15.6-2.8zM510.2 287.8c-2.7 2.1-3.9 8-2.2 11.1.6 1.3 2.6 2.9 4.4 3.6 6.1 2.6 11.2-.6 12.2-7.3.5-3.5.2-4.2-2.6-6.6-3.7-3.1-8.4-3.4-11.8-.8zM168 342.2c-8.3 2.3-12.1 11.4-7.5 18.4 6.3 9.7 22 6.2 22.6-5.1.3-4.8 0-5.9-2.4-8.7-3.1-3.9-8.3-5.8-12.7-4.6zM35.2 344.4c-4.3 2.8-6.4 6-6.7 10.4-.5 7.5 3.9 13.4 11 15 9.3 2 17.5-4.6 17.5-14.1 0-3.9-3-9-6.6-11.4-4-2.6-11.2-2.6-15.2.1zM100.5 343.5c-6.4 2.9-9.1 7.8-8 14.3 2.2 13 20.9 14.8 25.6 2.5 4-10.6-7.3-21.5-17.6-16.8zM376.3 346.1c-3.1 1.1-6.1 6.4-5.5 9.4.2 1.4 1.8 3.6 3.4 5 7.1 6 17.1-2.4 12.8-10.5-1.9-3.5-6.9-5.3-10.7-3.9zM439.5 350.5c-1.4 1.3-2.5 3.5-2.5 4.8 0 3.6 4.3 7.7 8 7.7 2.8 0 6.8-2.8 7.1-5 .1-.6.2-1.6.3-2.3.4-2.1-2.6-6.5-4.8-7.1-3.8-1-5.7-.6-8.1 1.9zM503.3 351.6c-2.9 2.9-2.9 6.7-.1 9.4 5.7 5.3 13.9-1.7 10-8.6-1.8-3.3-7-3.7-9.9-.8zM210.3 390c-7.3 4.4-5.2 15 3.3 16.5 3.9.7 7.5-1.3 9.6-5.4 4-7.9-5.2-15.8-12.9-11.1zM330.4 392.5c-5.1 5.1-.9 13.4 6.1 12.1 5.1-1.1 7.2-5.5 5-10.8-1.5-3.7-7.9-4.4-11.1-1.3zM130.5 401.4c-3.6 2.9-4.8 8.6-2.5 12.3 2.6 4.3 4.5 5.4 9.1 5.5 9.8.1 13.5-12.4 5.5-18.2-3.2-2.3-9-2.1-12.1.4zM63 403.5c-9.5 3.2-9.8 16.2-.5 20.1 11 4.6 20.3-9 12-17.6-3.1-3.3-6.9-4.1-11.5-2.5zM409.3 405c-5.3 6.1 1.8 13.9 8.2 8.9 3-2.5 3.2-5.7.5-8.7-2.6-2.7-6.5-2.8-8.7-.2zM271.5 406.2c-4.8 2.8-6 8.8-2.5 12.6 4.1 4.4 10.7 3.6 13.4-1.5 3.7-7.3-4-15.1-10.9-11.1zM479.4 410.5c-2.1 3.3-.7 7.1 3.1 8.1 5 1.2 8.8-5.5 4.9-8.7-2.9-2.4-6.2-2.2-8 .6zM182 441.7c-5.2 2-6.5 8.9-2.5 12.8 4.7 4.8 12.4 2 13-4.6.5-6.1-4.9-10.3-10.5-8.2zM361.2 446.5c-1.8 4 .2 7.5 4.4 7.5 3.3 0 5.6-3.2 4.5-6.2-1.7-4.4-7.1-5.2-8.9-1.3zM99.8 455.8c-4.6 2.8-4.7 10.5-.3 14.2.9.7 3.5 1.4 5.7 1.4 7.8 0 11.4-8.2 6.2-14.3-3-3.6-7.2-4.1-11.6-1.3zM442.7 459c-3.7 2.9-2.6 7.6 1.9 8.4 3.7.7 6.9-3.3 5.2-6.6-1.6-3.3-4.3-3.9-7.1-1.8zM239.5 465.2c-3.1 2.4-3.4 7.7-.7 10.1 4.7 4.3 12.9.2 11.7-5.8-1.1-5.8-6.4-7.9-11-4.3zM303.8 466.2c-3.4 2.7-2.6 8.1 1.2 8.9 1.8.4 6-1 6.1-1.9 0-.4.2-1.5.4-2.5.4-2-2.7-5.7-4.8-5.7-.7 0-2 .6-2.9 1.2zM149.2 495.3c-5.2 5.5-.4 14.4 7 13 3.4-.6 5.6-3.1 6.4-7 1.4-6.8-8.5-11.2-13.4-6zM393.3 496.3c-2.2 1-2.8 2.4-2.3 5.7.5 3.6 5.2 4.8 7.8 2 2.1-2.3 2.2-3.5.7-6.1-1.4-2.2-3.6-2.8-6.2-1.6zM210.2 520.6c-1.2.8-2.2 2.6-2.2 3.8 0 5.4 7.7 6.4 9.5 1.2.8-2.4.6-3.1-1.4-4.7-2.8-2.3-3.1-2.3-5.9-.3zM334.4 520.4c-2 1.5-2.2 6.5-.3 7.7 4.3 2.7 10.2-1.8 7.9-6-.6-1.2-1.4-2.1-1.8-2.2-.4 0-1.5-.2-2.4-.4-.9-.2-2.4.2-3.4.9zM272 529c-1.1 1.1-2 2.7-2 3.5 0 2.4 3.7 5.5 5.7 4.8 5.2-1.8 6.1-5.9 2-8.8-2.8-1.9-3.3-1.9-5.7.5z"/></svg>