<svg width="17" height="17" xmlns="http://www.w3.org/2000/svg"><path d="M8.674.816c-1.428 0-2.754.36-3.978 1.08A7.782 7.782 0 0 0 1.87 4.722 7.809 7.809 0 0 0 .808 8.7c0 1.428.354 2.754 1.062 3.978a7.782 7.782 0 0 0 2.826 2.826 7.644 7.644 0 0 0 3.978 1.071 7.877 7.877 0 0 0 3.978-1.071 7.782 7.782 0 0 0 2.826-2.826A7.877 7.877 0 0 0 16.55 8.7a7.644 7.644 0 0 0-1.07-3.978 7.782 7.782 0 0 0-2.827-2.826A7.809 7.809 0 0 0 8.674.834V.816zm4.824 4.086c.396.504.705 1.053.927 1.647.222.594.351 1.215.387 1.863a11.77 11.77 0 0 0-2.52-.288c-.6 0-1.194.054-1.782.162a39.35 39.35 0 0 0-.414-.954c1.38-.612 2.514-1.422 3.402-2.43zm-4.824-2.34c.708 0 1.39.117 2.043.351a6.18 6.18 0 0 1 1.791.999c-.744.888-1.752 1.608-3.024 2.16C8.836 4.8 8.128 3.678 7.36 2.706a6.205 6.205 0 0 1 1.314-.144zm-2.718.63c.768.9 1.5 2.016 2.196 3.348-.84.252-1.74.432-2.7.54a16.6 16.6 0 0 1-2.16.144l-.576-.018a5.983 5.983 0 0 1 1.18-2.367 6.096 6.096 0 0 1 2.06-1.647zM2.536 8.7v-.09c.204.012.426.018.666.018 2.076-.012 3.936-.282 5.58-.81.132.288.252.558.36.81a9.584 9.584 0 0 0-3.456 2.052c-.66.6-1.224 1.26-1.692 1.98a6.169 6.169 0 0 1-1.08-1.836A5.999 5.999 0 0 1 2.536 8.7zm6.138 6.138a5.973 5.973 0 0 1-1.935-.315 6.416 6.416 0 0 1-1.719-.891 8.809 8.809 0 0 1 1.422-1.746c.948-.912 2.016-1.56 3.204-1.944a30.913 30.913 0 0 1 1.206 4.5 6.187 6.187 0 0 1-2.178.396zm3.474-1.08a30.904 30.904 0 0 0-1.134-4.14c.42-.06.84-.09 1.26-.09h.018c.756 0 1.56.096 2.412.288a5.844 5.844 0 0 1-.89 2.241 6.242 6.242 0 0 1-1.666 1.701z" fill="#FFF" fill-rule="evenodd"/></svg>