<svg width="16" height="14" xmlns="http://www.w3.org/2000/svg"><path d="M15.89 2.27c-.57.25-1.19.42-1.84.5.66-.39 1.17-1.02 1.41-1.77-.62.37-1.3.63-2.03.78A3.224 3.224 0 0 0 11.09.77a3.205 3.205 0 0 0-3.13 3.92 9.067 9.067 0 0 1-6.6-3.34c-.28.48-.44 1.03-.44 1.61 0 1.11.57 2.09 1.43 2.66-.53-.01-1.02-.16-1.45-.4v.04C.9 6.81 2 8.1 3.47 8.4c-.27.07-.55.11-.85.11-.2 0-.4-.02-.6-.06a3.2 3.2 0 0 0 2.99 2.22 6.393 6.393 0 0 1-3.98 1.37c-.25 0-.51-.01-.76-.04 1.42.9 3.1 1.43 4.91 1.43 5.9 0 9.12-4.87 9.12-9.09l-.01-.42c.63-.45 1.17-1.01 1.6-1.65" fill="#B2B2B2" fill-rule="evenodd"/></svg>