<svg width="16" height="9" xmlns="http://www.w3.org/2000/svg"><path d="M16 3.25c-.28-.82-.71-1.67-1.32-2.24C12.6.28 10.24 0 7.98 0 5.65 0 3.44.35 1.3 1.11.69 1.67.27 2.51 0 3.3l.29.5 2.38-.53.98-1.56c1.42-.23 2.88-.25 4.33-.25 1.46 0 2.91.02 4.35.25l.99 1.56c.82.16 1.6.35 2.42.46l.26-.48zm-2.13 5.06c0-.39-2.21-4.63-2.63-5.46-.54-.05-1.1-.08-1.64-.1l-.56.93H6.93l-.55-.93c-.54.02-1.1.05-1.65.1-.41.82-2.6 5.06-2.6 5.46 0 .25.19.27.49.31.55.08 1.11.11 1.65.17C5.53 8.9 6.8 9 8.06 9c1.3 0 2.59-.11 3.87-.22.48-.05.96-.08 1.44-.16.29-.05.5-.07.5-.31zM9.6 6c0 .87-.72 1.53-1.6 1.53-.88 0-1.6-.66-1.6-1.53 0-.88.72-1.59 1.6-1.59.88 0 1.6.71 1.6 1.59z" fill="#CBCBCB" fill-rule="evenodd"/></svg>