<svg width="149" height="38" xmlns="http://www.w3.org/2000/svg"><g transform="translate(-19 -7)" fill="none"><path d="M31.15 28.008l-3.748-.69c-1.915-.338-3.154-.845-3.154-2.14 0-1.127.901-1.55 2.844-1.55h8.59v-3.787h-8.759c-4.646 0-7.181 2-7.181 5.435 0 3.605 2.31 5.126 6.28 5.83l3.633.647c1.915.338 3.154.902 3.154 2.282 0 1.267-.9 1.717-2.844 1.717H19.812v3.802h10.322c4.647 0 7.182-2.055 7.182-5.604.002-3.717-2.113-5.224-6.165-5.942zm18.335-4.225c-2.366 0-4.14.733-5.605 2.394l-.535-2.112h-3.551v20.559h4.28v-5.239c1.1.307 2.238.459 3.38.451 6.477 0 8.759-2.563 8.759-7.857.002-5.436-2.476-8.196-6.728-8.196zM47.71 36.12a14.802 14.802 0 0 1-3.633-.395v-5.491c.902-1.38 2.14-2.648 4.056-2.648 2.76 0 3.717 1.521 3.717 4.281 0 2.985-1.267 4.253-4.14 4.253zm10.587-4.395c0 5.323 2.45 8.111 6.702 8.111 2.366 0 4.14-.676 5.605-2.253l.563 1.971h3.549V25.445a22.986 22.986 0 0 0-8.872-1.662c-4.872 0-7.547 2.62-7.547 7.942zm12.138-3.717v5.576c-.93 1.267-2.31 2.45-4.225 2.45-2.76 0-3.548-1.38-3.548-4.309 0-2.929 1.21-4.252 3.886-4.224 1.311.015 2.616.185 3.887.507zm11.969-1.662l-.591-2.281h-3.549v15.49h4.28v-9.14c.902-1.52 2.17-2.76 4.563-2.76h2.563v-3.73h-2.028c-2.253 0-3.858.703-5.238 2.421zm20.052 5.041a7.446 7.446 0 0 0 1.83-1.83l4.14-5.492h-5.154l-2.788 4.084c-.788 1.154-1.323 1.549-2.534 1.549h-1.86V18.15h-4.28v21.403h4.28v-6.28h1.802c.986 0 1.493.141 2.197 1.24l3.267 5.04h5.379l-4.478-6.139c-.648-.93-1.183-1.605-1.802-2.028zm18.897 1.127a4.867 4.867 0 0 1-4.253 2.196c-2.084 0-2.647-.957-2.647-2.872v-7.773h-4.28v8.392c0 3.943 2.055 6.084 5.744 6.084 2.31 0 4.028-.451 5.436-1.775v1.296c0 2.168-1.324 3.267-4.337 3.267h-5.323v3.576h5.323c5.773 0 8.618-2.365 8.618-6.928V24.065h-4.281v8.449zm17.573-8.731c-2.28 0-4.055.676-5.52 2.225v-7.86h-4.28v19.995a17.01 17.01 0 0 0 7.66 1.69c6.365 0 8.759-2.703 8.759-7.97 0-5.266-2.366-8.08-6.619-8.08zM137.04 36.12a18.562 18.562 0 0 1-3.633-.535v-5.351c.902-1.38 2.14-2.648 4.056-2.648 2.76 0 3.717 1.493 3.717 4.31 0 2.9-1.21 4.224-4.14 4.224zm11.236-12.041h4.224v15.489h-4.224zm16.326 12.11c-1.971 0-3.098-.659-3.098-2.602V27.74h5.351v-3.66h-5.35v-4.225h-2.91l-1.112 4.224h-2.448v3.661h2.253v5.703c0 4.506 1.972 6.407 6.844 6.407h3.154v-3.66h-2.684z" fill="#FFF"/><circle fill="#FFF" cx="150.389" cy="20.277" r="2.112"/><path d="M143.489 22.39a.462.462 0 1 1 0-.924.462.462 0 0 1 0 .923zm.907-3.262a.682.682 0 1 1 0-1.363.682.682 0 0 1 0 1.363zm2.472-2.343a.811.811 0 1 1 0-1.622.811.811 0 0 1 0 1.622zm3.38-1.003a.715.715 0 1 1 0-1.43.715.715 0 0 1 0 1.43zm3.38.817a.625.625 0 1 1 0-1.25.625.625 0 0 1 0 1.25zm2.472 2.163a.315.315 0 1 1 0-.63.315.315 0 0 1 0 .63zm-15.99 3.627a.558.558 0 1 1 0-1.115.558.558 0 0 1 0 1.115zm.61-3.247a.783.783 0 1 1 0-1.566.783.783 0 0 1 0 1.566zm1.76-2.923a.91.91 0 1 1 0-1.82.91.91 0 0 1 0 1.82zm2.698-2.028a1.146 1.146 0 1 1 0-2.292 1.146 1.146 0 0 1 0 2.292zm3.31-1.31a1.04 1.04 0 1 1 0-2.078 1.04 1.04 0 0 1 0 2.079zm3.52-.19a.848.848 0 1 1 0-1.696.848.848 0 0 1 0 1.695zm3.309 1.202a.848.848 0 1 1 0-1.696.848.848 0 0 1 0 1.696zm2.698 1.94a.524.524 0 1 1 0-1.048.524.524 0 0 1 0 1.048zm-21.285 6.556a.648.648 0 1 1 0-1.295.648.648 0 0 1 0 1.295zm.462-3.19a.87.87 0 1 1 0-1.741.87.87 0 0 1 0 1.74zm1.349-3.127a1.005 1.005 0 1 1 0-2.01 1.005 1.005 0 0 1 0 2.01zm2.148-2.562a1.242 1.242 0 1 1 0-2.484 1.242 1.242 0 0 1 0 2.484zm2.8-2.245a1.146 1.146 0 1 1 0-2.292 1.146 1.146 0 0 1 0 2.292zm3.26-1.225a1.27 1.27 0 1 1 0-2.54 1.27 1.27 0 0 1 0 2.54zm3.499-.558a1.174 1.174 0 1 1 0-2.348 1.174 1.174 0 0 1 0 2.348zm3.498.366a1.079 1.079 0 1 1 0-2.157 1.079 1.079 0 0 1 0 2.157zm3.26 1.02a.75.75 0 1 1 0-1.498.75.75 0 0 1 0 1.498zm2.8 2.053a.653.653 0 1 1 0-1.307.653.653 0 0 1 0 1.307z" fill="#12C3CC"/></g></svg>