<svg version="1" xmlns="http://www.w3.org/2000/svg" width="748" height="748" viewBox="0 0 561 561"><path d="M268.7 70.5c-.1.1-3.8.5-8.2.9-26.7 2.2-53.9 10.2-78 23-15.1 8-34.2 21.1-41.6 28.5-.9.9-3.9 3.7-6.6 6.3-4.4 4-14.9 15.7-20.5 22.6-3.6 4.5-12.6 18-15.5 23.2-6.8 12.3-8.1 14.9-11.6 23.1-5.1 12-10.8 30-12.3 38.9-.2 1.4-.9 4.6-1.4 7.3-1.9 9-2.5 18.3-2.5 36.2 0 20.6.6 27.9 3.7 42.5.6 3 1.2 5.9 1.4 6.5.1.5 1.1 4.4 2.3 8.5 1.9 6.7 2.9 9.8 7.6 22 5.1 13.4 16.6 33.7 27 47.5 12.5 16.7 33.3 36.1 51.5 48.3 20.8 13.8 52.8 27.1 74.5 30.8 2.2.4 4.9.9 6 1.1 6.4 1.4 26.7 2.9 37 2.7 11.5-.1 28.4-1.3 29.5-1.9.3-.2 2.6-.6 5-1 15.4-2.2 37.7-9.3 54.7-17.5 12.5-6.1 22.5-11.8 23.1-13.2.2-.4.8-.8 1.3-.8 2 0 19.6-13.8 28.8-22.6 27.1-25.7 47-57.7 57.1-91.6 1.7-5.6 3.2-11.1 3.4-12.2.3-1.2 1-4.6 1.6-7.6 2.9-13.9 3.5-20.9 3.5-41 0-18.7-.6-27.1-2.6-37.1-.6-3-1.3-6.8-1.5-8.4-.3-1.7-.9-4.1-1.4-5.5-.5-1.4-1.2-4.1-1.6-6-1.2-6.5-8.6-25.4-14.4-37.2-5.2-10.5-17-29.6-20.3-33-.7-.7-2.6-3.1-4.2-5.3-1.7-2.2-7.3-8.4-12.5-13.8-20.5-21.3-44.7-37.8-71.1-48.5-8.9-3.7-24.4-8.8-29-9.7-1.1-.2-2.8-.6-3.7-.9-.9-.3-3.3-.8-5.2-1.1-1.9-.3-4.6-.7-6-1-10.4-1.9-19.3-2.7-33.7-3-7.3-.1-13.4-.1-13.6 0z"/></svg>